<?xml version="1.0" encoding="utf-8"?>
<!-- Generator: Adobe Illustrator 21.1.0, SVG Export Plug-In . SVG Version: 6.00 Build 0)  -->
<svg version="1.1" id="Layer_1" xmlns="http://www.w3.org/2000/svg" xmlns:xlink="http://www.w3.org/1999/xlink" x="0px" y="0px"
	 viewBox="0 0 388 102.2" style="enable-background:new 0 0 388 102.2;" xml:space="preserve">
<style type="text/css">
	.st0{fill:#10AA50;}
	.st1{fill:#B8C4C2;}
	.st2{fill:#12924F;}
	.st3{fill:#21313C;}
</style>
<path class="st0" d="M50,41C44.7,17.8,33.8,11.6,31,7.3c-1.6-2.4-3.1-6-3.1-6c-0.1,2-0.4,3.4-2.2,4.9C22.2,9.3,7.3,21.5,6.1,47.8
	c-1.2,24.5,18,39.7,20.6,41.3c2,1,4.3,0,5.5-0.9C41.4,81.9,54.1,64.9,50,41"/>
<path class="st1" d="M28.7,76c-0.5,6.1-0.8,9.6-2.1,13.1C27,93,27.5,97,28,101h2c0.7-6.9,2.2-12.8,2.2-12.8
	C29.6,86.9,28.8,81.3,28.7,76z"/>
<path class="st2" d="M32.2,88.2L32.2,88.2c-2.6-1.2-3.4-6.9-3.5-12.2c0.6-7.2,0.9-16.5,0.6-26.2c-0.1-4.6,0.1-42.5-1.1-48
	c0.5,1.1,1.7,3.6,2.8,5.5c2.8,4.4,13.7,10.5,19,33.7C54,64.9,41.5,81.8,32.2,88.2z"/>
<g>
	<path class="st3" d="M377.7,79.8c-3.1,0-5.7-2.4-5.7-5.6c0,0,0-0.1,0-0.1c0-3.1,2.5-5.7,5.6-5.7c0,0,0.1,0,0.1,0
		c3.1,0,5.7,2.5,5.7,5.6C383.4,77.3,380.9,79.8,377.7,79.8 M377.7,68.9c-2.9,0-5.2,2.3-5.2,5.2s2.3,5.2,5.2,5.2s5.2-2.3,5.2-5.2
		S380.6,68.9,377.7,68.9 M379.1,77.7l-1.5-3.2h-1.2v3.2h-0.9v-7.2h2.1c1.6,0,2.2,0.7,2.2,2c0,1.1-0.5,1.7-1.4,1.9l1.5,3.3
		L379.1,77.7L379.1,77.7z M376.5,73.8h1.2c1,0,1.4-0.4,1.4-1.3s-0.4-1.2-1.5-1.2h-1.1V73.8z M293,74.6c1.5,1.2,4.6,1.7,7.3,1.7
		c3.5,0,7-0.7,10.3-3.7c3.4-3.1,5.8-7.9,5.8-15.5c0-7.3-2.8-13.3-8.5-16.7c-3.2-2-7.4-2.8-12.2-2.8c-1.4,0-2.8,0.1-3.6,0.4
		c-0.2,0.1-0.7,0.7-0.7,1c-0.1,1.3-0.1,11.2-0.1,17.1l0.1,15.4C291.6,72.4,292,74,293,74.6 M278.4,34.3c1.2,0,6,0.2,8.2,0.2
		c4.1,0,7-0.2,14.7-0.2c6.5,0,11.9,1.7,15.8,5.1c4.7,4.1,7.2,9.7,7.2,16.6c0,9.8-4.5,15.4-8.9,18.6c-4.5,3.3-10.3,5.2-18.5,5.2
		c-4.4,0-11.9-0.1-18.3-0.2h-0.1c-0.3-0.6,0.5-2.8,1.1-2.9c1.7-0.2,2.2-0.3,3-0.6c1.3-0.5,1.6-1.2,1.8-3.6c0.2-4.5,0.1-9.9,0.1-15.9
		l-0.1-15.5c-0.2-2.2-1.2-2.8-3.1-3.3c-1-0.2-2.3-0.4-4.1-0.7C276.9,36.7,278,34.8,278.4,34.3 M342.3,38c-0.3,0.1-0.7,0.8-0.7,1.2
		c-0.1,2.6-0.1,9.4-0.1,14.1c0,0.1,0.2,0.4,0.4,0.4c1,0.1,3.3,0.1,5.3,0.1c2.8,0,4.4-0.4,5.3-0.8c2.3-1.2,3.4-3.7,3.4-6.5
		c0-6.3-4.4-8.7-10.9-8.7C344.5,37.9,343.3,37.9,342.3,38 M359,67c0-6.4-4.7-10-13.3-10c-0.4,0-3.1-0.1-3.7,0.1
		c-0.2,0.1-0.4,0.2-0.4,0.4l0.1,14.8c0.1,1.2,1,3,2.1,3.5c1.2,0.7,3.8,0.8,5.6,0.8C354.5,76.5,359,73.7,359,67 M329.1,34.4
		c0.7,0,2.6,0.2,7.6,0.2l13-0.1c5.6,0,13.4,2,13.4,10.4c0,4.1-2.9,7.5-6.7,9.1c-0.2,0.1-0.2,0.2,0,0.3c5.4,1.4,10.2,4.7,10.2,11.1
		c0,6.2-3.9,10.1-9.5,12.6c-3.4,1.5-7.7,2-12,2c-3.3,0-12.1-0.4-17-0.3c-0.5-0.2,0.5-2.5,0.9-2.9c1.2-0.1,2.1-0.2,3.3-0.5
		c1.8-0.4,2-1,2.2-3.6c0.1-2.2,0.1-10.3,0.1-16V41c-0.1-2-0.8-2.7-2.2-3c-1.1-0.2-2.9-0.4-4.4-0.7C327.6,36.9,328.7,34.7,329.1,34.4
		 M66.2,79.8c-0.1-0.2-0.3-0.8-0.2-1.5c0-0.5,0.1-0.9,0.2-1c1.4-0.2,2-0.4,2.8-0.6c1.3-0.3,1.8-1,1.9-2.7c0.2-3.9,0.2-11.2,0.1-16.4
		v-0.2c0-0.6,0-1.3-0.7-1.8c-1-0.7-2.3-1.2-3.9-1.7c-0.6-0.2-1-0.5-0.9-0.9c0-0.4,0.4-0.8,1.2-1c2.1-0.2,7.7-1.5,9.9-2.6
		c0.1,0.2,0.3,0.5,0.3,1c0,0.2,0,0.5-0.1,0.7c-0.1,0.7-0.1,1.6-0.1,2.4c0,0.2,0.3,0.5,0.5,0.5c0.2,0,0.3-0.1,0.4-0.2
		c4.2-3.3,7.9-4.4,9.8-4.4c3.1,0,5.6,1.5,7.5,4.6c0.1,0.2,0.3,0.2,0.4,0.2c0.2,0,0.3-0.1,0.4-0.2c3.8-2.9,7.6-4.6,10.2-4.6
		c6,0,9.6,4.5,9.6,12v13.3c0,0.4,0.5,1.3,1.2,1.5c0.9,0.4,2.1,0.6,3.7,0.9h0.1c0.1,0.4-0.1,2.1-0.4,2.5c-0.4,0-0.9,0-1.6-0.1
		c-1.2-0.1-3-0.2-4.9-0.2c-4,0-6.1,0.1-8.1,0.2c-0.2-0.5-0.2-2.1,0-2.4c1.2-0.2,1.7-0.4,2.4-0.6c1.3-0.4,1.6-1,1.7-2.7
		c0-1.2,0.3-11.7-0.1-14.3s-2.3-5.6-6.6-5.6c-1.6,0-4.2,0.7-6.6,2.5c-0.2,0.1-0.2,0.4-0.2,0.6l0,0c0.3,1.4,0.3,2.9,0.3,5.3v11.9
		c0,1.4,0.9,1.8,1.5,2c0.4,0.1,0.7,0.2,1,0.2c0.6,0.1,1.2,0.3,2.1,0.4c0.1,0.3,0.1,1.1,0,1.8c-0.1,0.4-0.2,0.6-0.3,0.6
		c-2.2-0.1-4.5-0.1-7.8-0.1c-1,0-2.6,0-4.1,0.1c-1.2,0-2.3,0.1-2.9,0.1c-0.1-0.1-0.2-0.6-0.2-1.3c0-0.6,0.1-1,0.2-1.2
		c0.3-0.1,0.6-0.1,0.9-0.2c0.8-0.1,1.4-0.3,2.1-0.4c1.1-0.3,1.5-0.9,1.6-2.3c0.2-3.2,0.4-12.5-0.1-14.8c-0.8-3.7-2.9-5.6-6.3-5.6
		c-2,0-4.5,1-6.6,2.5c-0.3,0.3-0.6,0.9-0.6,1.5v3.8l0.1,13c0.1,0.8,0.3,1.7,1.8,2c0.3,0.1,0.9,0.2,1.5,0.3c0.4,0.1,0.8,0.1,1.2,0.2
		c0.1,0.4,0.1,2-0.2,2.5c-0.6,0-1.4,0-2.3-0.1c-1.4-0.1-3.1-0.1-5-0.1c-2.3,0-3.9,0.1-5.2,0.1C67.7,79.8,66.9,79.8,66.2,79.8"/>
	<path class="st3" d="M139.8,52.7c-1.3,0-2.6,0.3-3.5,1c-2.5,1.5-3.8,4.6-3.8,9.2c0,8.5,4.3,14.4,10.4,14.4c1.8,0,3.3-0.5,4.5-1.6
		c1.9-1.5,2.9-4.6,2.9-9C150.1,58.3,146,52.7,139.8,52.7 M140.9,80.5c-11,0-14.9-8.1-14.9-15.6c0-5.3,2.2-9.4,6.4-12.3
		c3-1.9,6.4-2.9,9.9-2.9c8.4,0,14.3,6,14.3,14.7c0,5.9-2.3,10.5-6.8,13.4C147.7,79.1,144,80.5,140.9,80.5 M251.9,52.7
		c-1.3,0-2.6,0.3-3.5,1c-2.5,1.5-3.8,4.6-3.8,9.2c0,8.5,4.3,14.4,10.4,14.4c1.8,0,3.3-0.5,4.5-1.6c1.9-1.5,2.9-4.6,2.9-9
		C262.2,58.3,258.1,52.7,251.9,52.7 M253.1,80.5c-11,0-14.9-8.1-14.9-15.6c0-5.3,2.2-9.4,6.4-12.3c3-1.9,6.4-2.9,9.9-2.9
		c8.4,0,14.3,6,14.3,14.7c0,5.9-2.3,10.5-6.8,13.4C259.8,79.1,256.1,80.5,253.1,80.5"/>
	<path class="st3" d="M214.8,52.4c-3.4,0-5.6,2.7-5.6,6.8c0,4.2,1.9,9.1,7.2,9.1c0.9,0,2.6-0.4,3.4-1.3c1.2-1.1,2-3.5,2-6
		C221.9,55.6,219.2,52.4,214.8,52.4 M214.4,81c-1.3,0-2.2,0.4-2.8,0.7c-2.7,1.7-3.9,3.4-3.9,5.4c0,1.9,0.7,3.4,2.3,4.7
		c1.9,1.6,4.4,2.4,7.8,2.4c6.6,0,9.5-3.5,9.5-7c0-2.4-1.2-4.1-3.7-5C221.6,81.4,218.4,81,214.4,81 M214.8,97.9c-4,0-6.8-0.8-9.2-2.7
		c-2.4-1.8-3.4-4.5-3.4-6.4c0-0.5,0.1-1.9,1.3-3.3c0.7-0.8,2.3-2.2,6-4.8c0.1,0,0.2-0.2,0.2-0.3c0-0.2-0.1-0.3-0.2-0.3
		c-3-1.2-4-3.1-4.2-4.1v-0.2c-0.1-0.4-0.2-0.8,0.4-1.2c0.4-0.3,1.1-0.7,1.8-1.1c1.1-0.6,2.3-1.3,2.9-1.9c0.1-0.1,0.1-0.3,0.1-0.4
		c0-0.2-0.1-0.3-0.2-0.3c-4.5-1.5-6.8-4.9-6.8-9.9c0-3.3,1.5-6.3,4.2-8.1c1.8-1.4,6.3-3.1,9.3-3.1h0.2c3,0.1,4.7,0.7,7.1,1.6
		c1.3,0.5,2.5,0.7,4.2,0.7c2.5,0,3.6-0.8,4.5-1.7c0.1,0.1,0.2,0.5,0.2,1.3c0.1,0.8-0.2,2.1-0.8,3c-0.5,0.7-1.7,1.2-2.8,1.2h-0.3
		c-1.2-0.1-1.7-0.3-1.7-0.3l-0.3,0.1c-0.1,0.1,0,0.3,0,0.5v0.1c0.1,0.6,0.4,2.3,0.4,2.8c0,5.3-2.1,7.7-4.4,9.4
		c-2.2,1.6-4.7,2.6-7.6,2.9l0,0c-0.1,0-0.3,0-0.9,0.1c-0.4,0-0.8,0.1-0.9,0.1h-0.1c-0.5,0.1-1.8,0.8-1.8,1.9c0,0.9,0.6,2.1,3.4,2.3
		c0.6,0,1.2,0.1,1.8,0.1c3.7,0.3,8.3,0.6,10.4,1.3c3,1.1,4.8,3.7,4.8,7c0,4.8-3.4,9.3-9.1,12C220.7,97.2,217.9,97.9,214.8,97.9
		 M198,77.3c-1.6-0.2-2.8-0.4-4.2-1.1c-0.2-0.1-0.5-0.8-0.5-1c-0.1-2.2-0.1-8.8-0.1-13c0-3.5-0.6-6.5-2.1-8.7
		c-1.8-2.5-4.2-3.9-7.5-3.9c-2.9,0-6.7,2-9.8,4.6c-0.1,0.1-0.6,0.5-0.5-0.2c0-0.7,0.1-2.2,0.2-3.1s-0.5-1.3-0.5-1.3
		c-2.1,1-7.8,2.4-10,2.6c-1.6,0.3-2,1.8-0.3,2.3s2.9,1.1,3.8,1.7c0.7,0.5,0.6,1.2,0.6,1.8c0.1,4.9,0.1,12.3-0.1,16.4
		c-0.1,1.6-0.5,2.2-1.7,2.5h0.1c-0.9,0.2-1.6,0.4-2.7,0.5c-0.4,0.4-0.4,2.5,0,2.9c0.7,0,4.5-0.2,7.5-0.2c4.3,0,6.5,0.2,7.5,0.2
		c0.4-0.5,0.6-2.5,0.3-2.9c-1.2-0.1-2.1-0.2-3-0.4c-1.2-0.3-1.5-0.9-1.5-2.2c-0.1-3.4-0.1-10.7-0.1-15.6c0-1.4,0.4-2,0.8-2.4
		c1.5-1.3,3.9-2.2,6-2.2s3.4,0.7,4.5,1.5c1.4,1.2,1.9,2.8,2.1,4.1c0.3,2.8,0.2,8.3,0.2,13c0,2.6-0.2,3.3-1.2,3.6
		c-0.4,0.2-1.6,0.4-3,0.6c-0.4,0.4-0.3,2.5,0,2.9c1.9,0,4.1-0.2,7.3-0.2c4,0,6.6,0.2,7.6,0.2C198.1,79.6,198.3,77.8,198,77.3"/>
</g>
</svg>
